<svg xmlns="http://www.w3.org/2000/svg" version="1.1" width="32" height="32">
<path d="M0 0 C1.14984375 -0.00386719 2.2996875 -0.00773438 3.484375 -0.01171875 C4.68578125 -0.00011719 5.8871875 0.01148437 7.125 0.0234375 C8.32640625 0.01183594 9.5278125 0.00023438 10.765625 -0.01171875 C12.49039062 -0.00591797 12.49039062 -0.00591797 14.25 0 C15.83167969 0.00507568 15.83167969 0.00507568 17.4453125 0.01025391 C20.125 0.3984375 20.125 0.3984375 21.96728516 1.55615234 C23.61461838 4.17757294 23.51354594 6.1910385 23.5234375 9.2734375 C23.52923828 10.99820312 23.52923828 10.99820312 23.53515625 12.7578125 C23.52355469 13.95921875 23.51195312 15.160625 23.5 16.3984375 C23.51160156 17.59984375 23.52320313 18.80125 23.53515625 20.0390625 C23.53128906 21.18890625 23.52742188 22.33875 23.5234375 23.5234375 C23.52005371 24.57789062 23.51666992 25.63234375 23.51318359 26.71875 C23.125 29.3984375 23.125 29.3984375 21.96728516 31.24072266 C19.34586456 32.88805588 17.332399 32.78698344 14.25 32.796875 C13.10015625 32.80074219 11.9503125 32.80460937 10.765625 32.80859375 C9.56421875 32.79699219 8.3628125 32.78539062 7.125 32.7734375 C5.92359375 32.78503906 4.7221875 32.79664063 3.484375 32.80859375 C1.75960938 32.80279297 1.75960938 32.80279297 0 32.796875 C-1.05445313 32.79349121 -2.10890625 32.79010742 -3.1953125 32.78662109 C-5.875 32.3984375 -5.875 32.3984375 -7.71728516 31.24072266 C-9.36461838 28.61930206 -9.26354594 26.6058365 -9.2734375 23.5234375 C-9.27730469 22.37359375 -9.28117188 21.22375 -9.28515625 20.0390625 C-9.27355469 18.83765625 -9.26195312 17.63625 -9.25 16.3984375 C-9.26160156 15.19703125 -9.27320313 13.995625 -9.28515625 12.7578125 C-9.28128906 11.60796875 -9.27742187 10.458125 -9.2734375 9.2734375 C-9.27005371 8.21898437 -9.26666992 7.16453125 -9.26318359 6.078125 C-8.875 3.3984375 -8.875 3.3984375 -7.71728516 1.55615234 C-5.09586456 -0.09118088 -3.082399 0.00989156 0 0 Z " fill="#FEE3D1" transform="translate(8.875,-0.3984375)"/>
<path d="M0 0 C1.38294718 0.01329757 2.76582404 0.03715018 4.1484375 0.0703125 C4.85484375 0.07933594 5.56125 0.08835937 6.2890625 0.09765625 C8.03399848 0.12123647 9.77876045 0.15710789 11.5234375 0.1953125 C10.5334375 0.6903125 10.5334375 0.6903125 9.5234375 1.1953125 C9.5234375 2.1853125 9.5234375 3.1753125 9.5234375 4.1953125 C10.5134375 4.1953125 11.5034375 4.1953125 12.5234375 4.1953125 C12.8534375 3.5353125 13.1834375 2.8753125 13.5234375 2.1953125 C13.55028845 4.67455051 13.57020297 7.1535009 13.5859375 9.6328125 C13.59431641 10.33986328 13.60269531 11.04691406 13.61132812 11.77539062 C13.61997338 13.58224809 13.57563761 15.38918853 13.5234375 17.1953125 C11.48077321 19.23797679 7.38652316 18.38039194 4.5859375 18.3828125 C3.84408203 18.39505859 3.10222656 18.40730469 2.33789062 18.41992188 C0.39830121 18.42519728 -1.5407996 18.31720152 -3.4765625 18.1953125 C-5.4765625 16.1953125 -5.4765625 16.1953125 -5.7421875 13.0078125 C-5.73703125 11.7496875 -5.731875 10.4915625 -5.7265625 9.1953125 C-5.73171875 7.9371875 -5.736875 6.6790625 -5.7421875 5.3828125 C-5.36187497 0.81906211 -4.55476298 0.25588556 0 0 Z " fill="#FD3EA8" transform="translate(11.4765625,6.8046875)"/>
<path d="M0 0 C1.14984375 -0.00386719 2.2996875 -0.00773438 3.484375 -0.01171875 C4.68578125 -0.00011719 5.8871875 0.01148437 7.125 0.0234375 C8.32640625 0.01183594 9.5278125 0.00023438 10.765625 -0.01171875 C12.49039062 -0.00591797 12.49039062 -0.00591797 14.25 0 C15.83167969 0.00507568 15.83167969 0.00507568 17.4453125 0.01025391 C20.125 0.3984375 20.125 0.3984375 21.96728516 1.55615234 C23.61461838 4.17757294 23.51354594 6.1910385 23.5234375 9.2734375 C23.52923828 10.99820312 23.52923828 10.99820312 23.53515625 12.7578125 C23.52355469 13.95921875 23.51195312 15.160625 23.5 16.3984375 C23.51160156 17.59984375 23.52320313 18.80125 23.53515625 20.0390625 C23.53128906 21.18890625 23.52742188 22.33875 23.5234375 23.5234375 C23.52005371 24.57789062 23.51666992 25.63234375 23.51318359 26.71875 C23.125 29.3984375 23.125 29.3984375 21.76806641 31.25390625 C19.51056682 32.82644088 17.80973284 32.61611854 15.125 32.3984375 C14.375 30.1484375 14.375 30.1484375 14.125 27.3984375 C14.76953125 26.82609375 15.4140625 26.25375 16.078125 25.6640625 C18.88423628 22.55806147 18.65998125 20.52622449 18.625 16.3984375 C18.6353125 15.1815625 18.645625 13.9646875 18.65625 12.7109375 C18.35758252 9.38963617 18.35758252 9.38963617 16.53125 6.9921875 C13.28031659 4.83897186 11.0007432 4.86559222 7.125 4.8984375 C5.908125 4.888125 4.69125 4.8778125 3.4375 4.8671875 C-0.40090188 5.48278025 -1.56896113 6.33118192 -3.875 9.3984375 C-4.67181318 12.04028291 -4.67181318 12.04028291 -4.875 14.3984375 C-6.195 14.7284375 -7.515 15.0584375 -8.875 15.3984375 C-8.95607583 13.46162589 -9.01422475 11.5238441 -9.0625 9.5859375 C-9.09730469 8.50699219 -9.13210938 7.42804687 -9.16796875 6.31640625 C-8.875 3.3984375 -8.875 3.3984375 -7.72387695 1.7409668 C-5.11446346 -0.15381265 -3.20367637 0.01028075 0 0 Z " fill="#FD056F" transform="translate(8.875,-0.3984375)"/>
<path d="M0 0 C0.99 0 1.98 0 3 0 C3.02578125 0.60328125 3.0515625 1.2065625 3.078125 1.828125 C3.13484375 2.62734375 3.1915625 3.4265625 3.25 4.25 C3.29640625 5.03890625 3.3428125 5.8278125 3.390625 6.640625 C4.22465092 9.86980228 5.30431402 11.0395011 8 13 C11.49272252 13.69779382 11.49272252 13.69779382 15.25 13.75 C17.14492188 13.83507812 17.14492188 13.83507812 19.078125 13.921875 C20.04234375 13.94765625 21.0065625 13.9734375 22 14 C22.33 15.32 22.66 16.64 23 18 C19.56265937 18.08703823 16.12560163 18.14040272 12.6875 18.1875 C11.71103516 18.21263672 10.73457031 18.23777344 9.72851562 18.26367188 C8.32182617 18.27817383 8.32182617 18.27817383 6.88671875 18.29296875 C6.02264404 18.3086792 5.15856934 18.32438965 4.26831055 18.34057617 C2 18 2 18 0.21508789 16.68920898 C-1.77808322 13.91831268 -1.31849345 11.21063095 -1.25 7.875 C-1.23453125 6.61429688 -1.2190625 5.35359375 -1.203125 4.0546875 C-1 1 -1 1 0 0 Z " fill="#FDB006" transform="translate(1,14)"/>
<path d="M0 0 C1.16337891 0.00966797 2.32675781 0.01933594 3.52539062 0.02929688 C4.74033203 0.05443359 5.95527344 0.07957031 7.20703125 0.10546875 C8.43357422 0.11900391 9.66011719 0.13253906 10.92382812 0.14648438 C13.95616789 0.18188134 16.98763121 0.23126115 20.01953125 0.29296875 C18.01953125 3.29296875 18.01953125 3.29296875 16.20361328 3.75366211 C15.48544434 3.79628174 14.76727539 3.83890137 14.02734375 3.8828125 C12.84591797 3.9765918 12.84591797 3.9765918 11.640625 4.07226562 C9.98458685 4.17722579 8.32833183 4.2788218 6.671875 4.37695312 C1.73462499 4.75912075 1.73462499 4.75912075 -2.50390625 7.1875 C-4.17886014 9.57586018 -4.66041135 11.41245219 -4.98046875 14.29296875 C-6.30046875 14.62296875 -7.62046875 14.95296875 -8.98046875 15.29296875 C-9.06154458 13.35615714 -9.1196935 11.41837535 -9.16796875 9.48046875 C-9.20277344 8.40152344 -9.23757813 7.32257812 -9.2734375 6.2109375 C-8.98046875 3.29296875 -8.98046875 3.29296875 -7.8359375 1.62890625 C-5.18633768 -0.27880562 -3.23970956 -0.04741038 0 0 Z " fill="#A71CFA" transform="translate(8.98046875,-0.29296875)"/>
<path d="M0 0 C0.66 0.66 1.32 1.32 2 2 C1.8125 5.5 1.8125 5.5 1 9 C-2.22143276 11.14762184 -3.2595467 11.561068 -7 11 C-9.2855347 8.87208838 -9.92303658 7.52591672 -10.375 4.4375 C-10 2 -10 2 -8.9375 0.125 C-5.82785011 -1.68060316 -3.38260527 -0.79952488 0 0 Z " fill="#FEEDF2" transform="translate(20,11)"/>
<path d="M0 0 C0.33 0.66 0.66 1.32 1 2 C1.66 2 2.32 2 3 2 C3.04241723 4.33294775 3.04092937 6.66702567 3 9 C2 10 2 10 -1.59765625 10.09765625 C-3.08596867 10.0909822 -4.57426432 10.07902183 -6.0625 10.0625 C-7.20041992 10.05573242 -7.20041992 10.05573242 -8.36132812 10.04882812 C-10.24091871 10.0370068 -12.12046899 10.01907078 -14 10 C-14.33 8.35 -14.66 6.7 -15 5 C-14.01 5 -13.02 5 -12 5 C-11.67 4.34 -11.34 3.68 -11 3 C-10.01 4.485 -10.01 4.485 -9 6 C-5.535 5.505 -5.535 5.505 -2 5 C-1.34 3.35 -0.68 1.7 0 0 Z " fill="#FD5241" transform="translate(22,15)"/>
<path d="M0 0 C1.50156874 3.00313748 1.09281204 5.79067522 1.0625 9.125 C1.05347656 10.40632813 1.04445313 11.68765625 1.03515625 13.0078125 C1.02355469 13.99523438 1.01195313 14.98265625 1 16 C0.01 16 -0.98 16 -2 16 C-2.33 12.04 -2.66 8.08 -3 4 C-3.99 4 -4.98 4 -6 4 C-6 3.01 -6 2.02 -6 1 C-9.96 0.67 -13.92 0.34 -18 0 C-18 -0.33 -18 -0.66 -18 -1 C-15.75135275 -1.22245975 -13.50097377 -1.42746557 -11.25 -1.625 C-9.37054687 -1.79902344 -9.37054687 -1.79902344 -7.453125 -1.9765625 C-4.15460786 -1.99895063 -2.64340427 -1.88631276 0 0 Z " fill="#FE9ED8" transform="translate(27,7)"/>
<path d="M0 0 C4.62 0 9.24 0 14 0 C14.33 1.32 14.66 2.64 15 4 C9.39 4 3.78 4 -2 4 C-2 3.34 -2 2.68 -2 2 C-1.34 2 -0.68 2 0 2 C0 1.34 0 0.68 0 0 Z " fill="#FEC500" transform="translate(9,28)"/>
<path d="M0 0 C4.95 0 9.9 0 15 0 C14.01 0.495 14.01 0.495 13 1 C13 1.99 13 2.98 13 4 C13.99 4 14.98 4 16 4 C16.33 3.34 16.66 2.68 17 2 C17 4.64 17 7.28 17 10 C16.34 10 15.68 10 15 10 C13.97388051 8.34928604 12.97691857 6.68029994 12 5 C10.74882038 3.07994865 10.74882038 3.07994865 9 2 C6.55519921 2.18828772 6.55519921 2.18828772 4 3 C2.33333333 3.33333333 0.66666667 3.66666667 -1 4 C-0.67 2.68 -0.34 1.36 0 0 Z " fill="#F90FC2" transform="translate(8,7)"/>
<path d="M0 0 C2.625 0.375 2.625 0.375 5 1 C5.33 2.65 5.66 4.3 6 6 C3 8 3 8 0.8125 7.625 C0.214375 7.41875 -0.38375 7.2125 -1 7 C-1.625 4.625 -1.625 4.625 -2 2 C-1.34 1.34 -0.68 0.68 0 0 Z " fill="#FE348E" transform="translate(14,12)"/>
<path d="M0 0 C0.99 0.33 1.98 0.66 3 1 C3.625 3.875 3.625 3.875 4 7 C2 9 2 9 -0.625 9.125 C-1.40875 9.08375 -2.1925 9.0425 -3 9 C-3.75 6.75 -3.75 6.75 -4 4 C-2.0625 1.6875 -2.0625 1.6875 0 0 Z " fill="#FD3356" transform="translate(27,23)"/>
<path d="M0 0 C0.4125 0.474375 0.825 0.94875 1.25 1.4375 C2.89078817 3.15276627 2.89078817 3.15276627 5.125 3.5 C5.74375 3.665 6.3625 3.83 7 4 C7.33 4.99 7.66 5.98 8 7 C4.7 7 1.4 7 -2 7 C-2.33 5.35 -2.66 3.7 -3 2 C-2.01 2 -1.02 2 0 2 C0 1.34 0 0.68 0 0 Z " fill="#FE7B20" transform="translate(10,18)"/>
<path d="M0 0 C1.32 0.66 2.64 1.32 4 2 C4 2.99 4 3.98 4 5 C1.5 6.6875 1.5 6.6875 -1 8 C-1.556875 7.360625 -2.11375 6.72125 -2.6875 6.0625 C-5.22066561 3.80319013 -6.68341424 3.36850953 -10 3 C-10 2.67 -10 2.34 -10 2 C-9.04287109 1.90912109 -9.04287109 1.90912109 -8.06640625 1.81640625 C-6.82697266 1.69072266 -6.82697266 1.69072266 -5.5625 1.5625 C-4.73878906 1.48128906 -3.91507813 1.40007813 -3.06640625 1.31640625 C-1.01337975 1.21069185 -1.01337975 1.21069185 0 0 Z " fill="#EC03C8" transform="translate(28,1)"/>
<path d="M0 0 C0.99 0 1.98 0 3 0 C3.10836453 1.43583001 3.18576167 2.8740202 3.25 4.3125 C3.29640625 5.11300781 3.3428125 5.91351563 3.390625 6.73828125 C3 9 3 9 0.984375 10.79296875 C0.32953125 11.19128906 -0.3253125 11.58960938 -1 12 C-1.02687279 10.18757948 -1.04633715 8.37504767 -1.0625 6.5625 C-1.07410156 5.55316406 -1.08570312 4.54382813 -1.09765625 3.50390625 C-1 1 -1 1 0 0 Z " fill="#FD5513" transform="translate(1,14)"/>
<path d="M0 0 C1.37478516 0.01740234 1.37478516 0.01740234 2.77734375 0.03515625 C3.69644531 0.04417969 4.61554687 0.05320313 5.5625 0.0625 C6.27277344 0.07410156 6.98304687 0.08570313 7.71484375 0.09765625 C3.83175093 3.74541011 1.00282557 4.68291258 -4.28515625 5.09765625 C-3.16461059 0.13523977 -3.16461059 0.13523977 0 0 Z " fill="#7F15FB" transform="translate(5.28515625,-0.09765625)"/>
<path d="M0 0 C1.28132813 0.00902344 2.56265625 0.01804688 3.8828125 0.02734375 C5.36394531 0.04474609 5.36394531 0.04474609 6.875 0.0625 C6.875 0.7225 6.875 1.3825 6.875 2.0625 C5.91078125 2.11148437 4.9465625 2.16046875 3.953125 2.2109375 C2.68984375 2.28570312 1.4265625 2.36046875 0.125 2.4375 C-1.75445313 2.54191406 -1.75445313 2.54191406 -3.671875 2.6484375 C-6.73498121 3.01573304 -8.54474266 3.45961286 -11.125 5.0625 C-8.55821408 -0.6210974 -6.01441462 -0.0546765 0 0 Z " fill="#FBDFFA" transform="translate(16.125,3.9375)"/>
<path d="M0 0 C-0.99 1.485 -0.99 1.485 -2 3 C-5.2578125 3.51171875 -5.2578125 3.51171875 -9.125 3.6875 C-11.04699219 3.78611328 -11.04699219 3.78611328 -13.0078125 3.88671875 C-13.99523437 3.92410156 -14.98265625 3.96148437 -16 4 C-11.47217435 -0.83919475 -6.26422575 -0.10617332 0 0 Z " fill="#D301D8" transform="translate(29,0)"/>
<path d="M0 0 C0.33 0 0.66 0 1 0 C1.05383848 2.45862401 1.09359038 4.9160755 1.125 7.375 C1.14175781 8.07367188 1.15851562 8.77234375 1.17578125 9.4921875 C1.19344267 11.32897486 1.10303261 13.16601963 1 15 C0.34 15.66 -0.32 16.32 -1 17 C-3.125 16.625 -3.125 16.625 -5 16 C-4.03320312 15.46439453 -4.03320312 15.46439453 -3.046875 14.91796875 C-0.15789794 12.21093109 -0.40394183 10.19953121 -0.25 6.3125 C-0.19328125 5.13300781 -0.1365625 3.95351562 -0.078125 2.73828125 C-0.05234375 1.83464844 -0.0265625 0.93101563 0 0 Z " fill="#FFF9F9" transform="translate(26,10)"/>
<path d="M0 0 C2.64 0 5.28 0 8 0 C8.33 1.32 8.66 2.64 9 4 C6.75 4.25 6.75 4.25 4 4 C1.6875 2 1.6875 2 0 0 Z " fill="#FE9C09" transform="translate(15,28)"/>
<path d="M0 0 C0.66 0 1.32 0 2 0 C1.45276317 3.37462715 0.9451 5.08235 -1 8 C-1.66 7.34 -2.32 6.68 -3 6 C-2.63318342 3.06546739 -2.13562754 2.13562754 0 0 Z " fill="#FD8806" transform="translate(3,23)"/>
<path d="M0 0 C0.99 0.33 1.98 0.66 3 1 C2.67 2.65 2.34 4.3 2 6 C0.68 6.33 -0.64 6.66 -2 7 C-2 5.02 -2 3.04 -2 1 C-1.34 0.67 -0.68 0.34 0 0 Z " fill="#E91ED4" transform="translate(2,8)"/>
<path d="M0 0 C0.99 0 1.98 0 3 0 C4.6875 2.5 4.6875 2.5 6 5 C4.35 5 2.7 5 1 5 C0.67 3.35 0.34 1.7 0 0 Z " fill="#FD602A" transform="translate(23,27)"/>
<path d="M0 0 C0 0.33 0 0.66 0 1 C-7.42857143 3.14285714 -7.42857143 3.14285714 -11 4 C-10.67 3.01 -10.34 2.02 -10 1 C-6.78548731 -0.60725635 -3.56387464 -0.05748185 0 0 Z " fill="#A905E4" transform="translate(21,0)"/>
<path d="M0 0 C0.33 0.66 0.66 1.32 1 2 C1.66 2 2.32 2 3 2 C3 3.65 3 5.3 3 7 C1.35 6.67 -0.3 6.34 -2 6 C-1.34 4.02 -0.68 2.04 0 0 Z " fill="#FE2565" transform="translate(22,15)"/>
<path d="M0 0 C1.98 0.66 3.96 1.32 6 2 C6 2.66 6 3.32 6 4 C4.35 4.33 2.7 4.66 1 5 C0.67 3.35 0.34 1.7 0 0 Z " fill="#FE3D69" transform="translate(13,15)"/>
<path d="M0 0 C0.99 0 1.98 0 3 0 C3 1.98 3 3.96 3 6 C2.01 6 1.02 6 0 6 C0 4.02 0 2.04 0 0 Z " fill="#FE3F4A" transform="translate(7,14)"/>
<path d="M0 0 C0 0.99 0 1.98 0 3 C-2.5 4.6875 -2.5 4.6875 -5 6 C-5.33 4.68 -5.66 3.36 -6 2 C-2.25 0 -2.25 0 0 0 Z " fill="#F808AD" transform="translate(32,3)"/>
<path d="M0 0 C0.99 0 1.98 0 3 0 C3 1.32 3 2.64 3 4 C1.68 4.33 0.36 4.66 -1 5 C-0.67 3.35 -0.34 1.7 0 0 Z " fill="#FD2D5D" transform="translate(1,14)"/>
<path d="M0 0 C0.33 0 0.66 0 1 0 C1 2.64 1 5.28 1 8 C0.34 8 -0.32 8 -1 8 C-1.625 5.6875 -1.625 5.6875 -2 3 C-1.34 2.01 -0.68 1.02 0 0 Z " fill="#FE018C" transform="translate(24,9)"/>
<path d="M0 0 C0.66 0 1.32 0 2 0 C1.67 1.65 1.34 3.3 1 5 C0.01 5.33 -0.98 5.66 -2 6 C-1.125 1.125 -1.125 1.125 0 0 Z " fill="#FD018E" transform="translate(30,6)"/>
</svg>